<svg version="1.1" id="Layer_1" xmlns="http://www.w3.org/2000/svg" xmlns:xlink="http://www.w3.org/1999/xlink" x="0px" y="0px" viewBox="0 0 300 300" style="enable-background:new 0 0 300 300;" xml:space="preserve">
<style type="text/css">
	.st0{fill:#609841;}
	.st1{fill:#F7F7F7;}
</style>
<circle class="st0" cx="150" cy="150" r="150"/>
<g>
	<path class="st1" d="M218.4,120.1c0,12.9-4.4,24.9-13.1,35.9c-8.7,11-20.7,19.6-35.8,26c-15.1,6.4-31.5,9.6-49.3,9.6&#10;&#9;&#9;c-8,0-16.2-0.7-24.6-2.2c-11.5,8.2-24.5,14.1-38.8,17.9c-3.3,0.8-7.3,1.6-12,2.2h-0.4c-1,0-2-0.4-2.9-1.1c-0.9-0.7-1.4-1.7-1.6-2.9&#10;&#9;&#9;c-0.1-0.3-0.1-0.6-0.1-0.9c0-0.3,0-0.6,0.1-0.9c0-0.3,0.1-0.6,0.3-0.8l0.3-0.7c0,0,0.2-0.3,0.5-0.8c0.3-0.5,0.5-0.7,0.6-0.7&#10;&#9;&#9;c0,0,0.3-0.2,0.6-0.7c0.4-0.5,0.6-0.7,0.6-0.6c0.5-0.6,1.5-1.7,3.2-3.5c1.7-1.8,2.9-3.1,3.6-4.1c0.7-1,1.8-2.3,3.1-4&#10;&#9;&#9;c1.3-1.7,2.5-3.5,3.5-5.4c1-1.9,1.9-3.9,2.9-6.1c-11.5-6.7-20.6-14.9-27.2-24.7c-6.6-9.8-9.9-20.2-9.9-31.2&#10;&#9;&#9;c0-12.9,4.4-24.9,13.1-35.9c8.7-11,20.7-19.6,35.8-26c15.1-6.4,31.6-9.6,49.3-9.6c17.8,0,34.2,3.2,49.3,9.6c15.1,6.4,27,15,35.8,26&#10;&#9;&#9;S218.4,107.1,218.4,120.1L218.4,120.1z M272,155.8c0,11.2-3.3,21.6-9.9,31.3c-6.6,9.7-15.7,17.9-27.2,24.6c0.9,2.2,1.9,4.3,2.9,6.1&#10;&#9;&#9;c1,1.9,2.1,3.7,3.5,5.4c1.3,1.7,2.4,3.1,3.1,4c0.7,1,2,2.3,3.6,4.1c1.7,1.8,2.7,2.9,3.2,3.5c0.1,0.1,0.3,0.3,0.6,0.6&#10;&#9;&#9;c0.3,0.3,0.5,0.6,0.6,0.7c0.1,0.1,0.3,0.4,0.6,0.7c0.2,0.3,0.4,0.6,0.5,0.8l0.3,0.7c0,0,0.1,0.3,0.3,0.8c0.2,0.6,0.2,0.9,0.1,0.9&#10;&#9;&#9;c-0.1,0-0.2,0.3-0.1,0.9c-0.3,1.3-0.9,2.3-1.8,3.1c-0.9,0.7-2,1.1-3.1,1c-4.7-0.7-8.6-1.4-12-2.2c-14.3-3.7-27.2-9.7-38.8-17.9&#10;&#9;&#9;c-8.4,1.5-16.6,2.2-24.6,2.2c-25.2,0-47.2-6.1-65.8-18.4c5.4,0.4,9.5,0.6,12.3,0.6c15,0,29.3-2.1,43.1-6.3&#10;&#9;&#9;c13.8-4.2,26-10.2,36.8-18c11.6-8.6,20.6-18.4,26.8-29.6c6.2-11.2,9.3-23,9.3-35.4c0-7.2-1.1-14.2-3.2-21.2&#10;&#9;&#9;c12,6.6,21.5,14.9,28.5,24.8C268.5,133.6,272,144.3,272,155.8L272,155.8z"/>
</g>
</svg>