<svg version="1.1" id="Layer_1" xmlns="http://www.w3.org/2000/svg" xmlns:xlink="http://www.w3.org/1999/xlink" x="0px" y="0px" viewBox="0 0 300 300" style="enable-background:new 0 0 300 300;" xml:space="preserve">
<style type="text/css">
	.st0{fill:#669B41;}
	.st1{fill-rule:evenodd;clip-rule:evenodd;fill:#FFFFFF;}
</style>
<g id="XMLID_1_">
	<g>
		<circle class="st0" cx="150" cy="150" r="150"/>
	</g>
	<g>
	</g>
</g>
<g>
	<path class="st1" d="M146.4,47.4c9.5-0.6,15,5.1,15.7,12.7c1.9,21.2-31.9,22.5-30,0C132.8,52.3,137.7,48,146.4,47.4z"/>
	<path class="st1" d="M85,69.1c23.9-4.9,21.9,29.3,3,29.2c-4.6,0-12.3-3.7-14.2-9.7C70.4,77.9,76.7,70.8,85,69.1z"/>
	<path class="st1" d="M202.6,69.1c7.3-1.6,16.4,2.7,18,9.7c5.4,24.5-35,26-29.2,0C192.1,75.4,196,70.5,202.6,69.1z"/>
	<path class="st1" d="M179.3,129c2.4,1.6,7.8,0.2,10.5,1.5c-1.8-16.8,2.9-31.9,20.2-28.5c17.8,3.6,10.5,34.5,12,55.4&#10;&#9;&#9;c1.6,2.2,3,4.5,5.2,6c-6.2-26.1,25.3-33.8,32.2-15c-0.5,10.9,0.3,21.8,0.7,32.2c0.3,5.7-1.7,12.6-0.7,17.2&#10;&#9;&#9;c1.1,5.3,6.9,7.4,6.7,12.7c-0.2,8.8-13.4,14-22.5,15c-18.2,2-44.9-1.6-64.4,0c-0.5,11.8,2.9,27.4-7.5,26.2c-6.1-0.7-5-6.1-5.2-12&#10;&#9;&#9;c-0.2-4.7,2.4-13-3-14.2c-2.7,1.6-1.6,6.4-1.5,9.7c0.1,3.4,1.3,6.8,0.7,9.7c-8.9,1.4-24.7,1-31.4,0c-0.1-3,0.1-6.8,0-10.5&#10;&#9;&#9;c-0.1-3.2,1.3-7.9-1.5-9c-3.5-0.7-2.1,3.8-2.2,6c-0.5,8,3.4,23-9,20.2c-6.1-3.6-3-16.5-3.7-25.5c-14.8-2.9-43.5,1.3-63.6-0.7&#10;&#9;&#9;c-16.2-1.7-31.6-13.4-17.2-26.2c2.1-22.2-6.6-55.1,11.2-61.4c17.4-2.4,24.1,9.9,21,25.5c3.4-0.4,3.4-4.1,6-5.2&#10;&#9;&#9;c2.8-16.3-4.1-32.6,0.7-46.4c4.2-11.9,25.7-14.1,30.7,0c1.8,5.1,0.2,10,0.7,18c1.8,1.3,6.6-0.8,10.5,0c2.4-16.3-3.4-23.2,0-35.2&#10;&#9;&#9;c2.7-9.2,22.8-15.4,36.7-14.2c10,0.9,24.2,5.9,27,12.7C182.7,103.1,177.1,115.2,179.3,129z M127.7,108c0.1,3.3-0.1,7.8,0,12&#10;&#9;&#9;c0.1,3.8-1.7,9.4,2.2,9.7c2.7-1.6,1.5-7.6,1.5-12c0-4.4,1.2-10.3-1.5-12c-0.7,0-1.5,0-2.2,0C127.7,106.5,127.7,107.3,127.7,108z&#10;&#9;&#9; M162.1,108c0,3.3-0.1,7.2,0,11.2c0.1,3.7-1.3,9,1.5,10.5c0.7,0,1.5,0,2.2,0c1.7-6.5,0.3-16.2,0.7-24c-1.5,0-3,0-4.5,0&#10;&#9;&#9;C162.1,106.5,162.1,107.3,162.1,108z M243.7,221.9c6.9-0.9,18.5-5.1,18.7-11.2c0.1-2.7-4.5-7.2-7.5-10.5&#10;&#9;&#9;c-16.6-18.1-27.9-31.7-43.4-48.7c-5.1-5.5-14.3-14.3-21-16.5c-9.4-3.1-27.4-1.5-42.7-1.5c-14.9,0-30.5-1.3-39.7,0&#10;&#9;&#9;c-11.3,1.6-19.3,12.1-25.5,18.7c-11.2,12-24.6,26.5-35.2,38.2c-3.2,3.5-16.3,16.1-15.7,21c0.7,5.7,12.5,9.7,19.5,10.5&#10;&#9;&#9;c20.5,2.3,42.7-1.7,63.6,0c2.2-16.9-3.5-25.8,0.7-37.4c3.2-8.8,17.9-12.7,27-13.5c14.5-1.2,32.7,4,35.9,14.2&#10;&#9;&#9;c3.2,10.3-0.8,22.7,0.7,36.7C198.9,219.9,223.7,224.4,243.7,221.9z M127.7,196.4c0,3.7,0,8.9,0,13.5c0,4.3-1.7,11.6,2.2,12&#10;&#9;&#9;c2.8-2,1.5-7.2,1.5-11.2c0-4.6,0-9.5,0-13.5c-0.2-0.8-0.8-1.2-1.5-1.5C129.8,196.5,128.7,196.5,127.7,196.4z M163.6,195.7&#10;&#9;&#9;c-0.1,1.2-1.9,0.6-1.5,2.2c0.1,3.5-0.1,8.7,0,13.5c0.1,4.2-1.9,11.4,3.7,10.5c1.3-7,1.2-19.2,0-26.2&#10;&#9;&#9;C165.1,195.7,164.4,195.7,163.6,195.7z"/>
	<path class="st1" d="M45.3,133.5c-4.7-3.4-9-6.2-9.7-12c-3-22.8,30-21.8,30-2.2C65.5,127.9,59.7,135,45.3,133.5z"/>
	<path class="st1" d="M240,105c12-2.7,18.5,5.1,18.7,13.5c0.5,19.2-27.8,19.6-30,3C227.4,111.2,232.3,106.8,240,105z"/>
	<path class="st1" d="M144.9,138c21-3.2,22.2,28.3,3,29.2C130.3,168,125.7,140.9,144.9,138z"/>
</g>
</svg>