<svg version="1.1" id="Layer_1" xmlns="http://www.w3.org/2000/svg" xmlns:xlink="http://www.w3.org/1999/xlink" x="0px" y="0px" viewBox="0 0 300 300" style="enable-background:new 0 0 300 300;" xml:space="preserve">
<style type="text/css">
	.st0{fill:#609841;}
	.st1{fill-rule:evenodd;clip-rule:evenodd;fill:#FFFFFF;}
	.st2{fill-rule:evenodd;clip-rule:evenodd;fill:#609841;}
</style>
<circle class="st0" cx="150" cy="150" r="150"/>
<g>
	<path class="st1" d="M56,66c-0.3,8.5,10.4,14.4,14,18c6,6,10.3,15.1,20,13c4.1-0.9,6.7-5.6,7-8c1.1-7.6-6.5-12.5-12-18&#10;&#9;&#9;c-6.4-6.4-11.9-14.8-19-14C61.3,57.5,56.2,59.9,56,66z M230,57c-6.5,2.9-29,23.8-27,33c0.6,2.8,3.7,6.4,8,7c8.9,1.2,14.1-8.1,19-13&#10;&#9;&#9;c4.4-4.4,14.3-11,14-18c-0.4-9-9.4-9.4-12-9C231.4,57.1,230.5,56.8,230,57z M181,209c2.4-7.4,9.1-13.6,13-20c4.3-7,8.4-14.5,11-23&#10;&#9;&#9;c13-42.5-23.2-78-62-74c-34.1,3.5-61.3,42.8-46,81c5.3,13.2,18,23.9,22,37c1.8,5.8-0.7,12.8,5,18c15.2,1.2,39.4,2.8,53-1&#10;&#9;&#9;C181.6,222.3,179.1,214.7,181,209z M67,218c-3.3,3.3-11.2,9.9-11,16c0.2,4.3,4.9,9.8,10,10c7.1,0.3,13.3-9.3,18-14&#10;&#9;&#9;c5-5,15.1-10.5,13-20c-1.8-8.4-10.2-7.1-14-6C77.8,205.5,71.8,213.2,67,218z M216,231c6.5,6.5,12.7,13.2,18,13c5-0.2,9.8-5.6,10-10&#10;&#9;&#9;c0.2-5.8-7.3-11.3-13-17c-7.5-7.5-12.1-16.9-22-13C193.5,210,212.3,227.3,216,231z"/>
	<path class="st1" d="M147,22c2,0,4,0,6,0c0,0.3,0,0.7,0,1c12.5,3.7,5.8,31.4,6,44c-3.5,3.6-7.9,4.9-12,4&#10;&#9;&#9;C135.4,68.4,136.9,24.6,147,22z"/>
	<path class="st1" d="M66,57c7.1-0.8,12.6,7.6,19,14c5.5,5.5,13.1,10.4,12,18c-0.3,2.4-2.9,7.1-7,8c-9.7,2.1-14-7-20-13&#10;&#9;&#9;c-3.6-3.6-14.3-9.5-14-18C56.2,59.9,61.3,57.5,66,57z"/>
	<path class="st1" d="M232,57c2.6-0.4,11.6,0,12,9c0.3,7-9.6,13.6-14,18c-4.9,4.9-10.1,14.2-19,13c-4.3-0.6-7.4-4.2-8-7&#10;&#9;&#9;c-2-9.2,20.5-30.1,27-33C230.5,56.8,231.4,57.1,232,57z"/>
	<path class="st1" d="M177,227c-13.6,3.8-37.8,2.2-53,1c-5.7-5.2-3.2-12.2-5-18c-4-13.1-16.7-23.8-22-37c-15.3-38.2,11.9-77.5,46-81&#10;&#9;&#9;c38.8-4,75,31.5,62,74c-2.6,8.5-6.7,16-11,23c-3.9,6.4-10.6,12.6-13,20C179.1,214.7,181.6,222.3,177,227z M119,168&#10;&#9;&#9;c-0.5-34.2,20.1-47.3,48-53C133.5,99,97.9,136.2,119,168z"/>
	<path class="st2" d="M167,115c-27.9,5.7-48.5,18.8-48,53C97.9,136.2,133.5,99,167,115z"/>
	<path class="st1" d="M22,153c0-2,0-4,0-6c0.3,0,0.7,0,1,0c3.7-12.5,31.4-5.8,44-6c3.6,3.5,4.9,7.9,4,12&#10;&#9;&#9;C68.4,164.6,24.6,163.1,22,153z"/>
	<path class="st1" d="M278,147c0,2,0,4,0,6c-0.3,0-0.7,0-1,0c-3.7,12.5-31.4,5.8-44,6c-3.6-3.5-4.9-7.9-4-12&#10;&#9;&#9;C231.6,135.4,275.4,136.9,278,147z"/>
	<path class="st1" d="M83,204c3.8-1.1,12.2-2.4,14,6c2.1,9.5-8,15-13,20c-4.7,4.7-10.9,14.3-18,14c-5.1-0.2-9.8-5.7-10-10&#10;&#9;&#9;c-0.2-6.1,7.7-12.7,11-16C71.8,213.2,77.8,205.5,83,204z"/>
	<path class="st1" d="M209,204c9.9-3.9,14.5,5.5,22,13c5.7,5.7,13.2,11.2,13,17c-0.2,4.4-5,9.8-10,10c-5.3,0.2-11.5-6.5-18-13&#10;&#9;&#9;C212.3,227.3,193.5,210,209,204z"/>
	<path class="st1" d="M154,278c-2.7,0-5.3,0-8,0c-6.1-1.9-9.5-6.5-14-10c-5.3,0.7-8.9-0.4-11-3c-1.3-7.7-3.4-23.7,4-26&#10;&#9;&#9;c14.8-1.7,36.2-1.6,51,0c5.7,3.6,5.2,20.8,2,27c-1.7,2.6-6.6,2-11,2C164,272.6,159.4,275.7,154,278z"/>
</g>
</svg>