<svg version="1.1" id="Layer_1" xmlns="http://www.w3.org/2000/svg" xmlns:xlink="http://www.w3.org/1999/xlink" x="0px" y="0px" viewBox="0 0 300 300" style="enable-background:new 0 0 300 300;" xml:space="preserve">
<style type="text/css">
	.st0{fill:#609841;}
	.st1{fill:#FFFFFF;}
</style>
<circle class="st0" cx="150" cy="150" r="150"/>
<g>
	<path class="st1" d="M112.4,88.5c7.4,0,14.6,0.9,21.6,2.9c3.1,0.9,5.2,2.8,5.8,6c0.8,4-1.8,8-5.8,8.9c-0.4,0.1-0.8,0.1-1.2,0.1&#10;&#9;&#9;c-2.7,0-5.4,0-8,0.2c-4.8,0.4-9.6,1.2-14.2,2.5c-3.6,0.9-7.1,2.1-10.5,3.5c-0.6,0.2-1,0.6-1.3,1.2c-4.3,7.7-7.7,15.7-10.4,24.1&#10;&#9;&#9;c-1.8,5.9-3.2,12-4.2,18.1c-0.7,4.3-1.1,8.6-1.3,12.9c-0.2,3.5-0.2,7.1-0.1,10.6c0.2,5.3,0.7,10.5,1.5,15.7c0.3,1.9,0.7,3.7,1,5.5&#10;&#9;&#9;c0.1,0.3,0.1,0.7,0.2,1c0.1,0.4-0.2,0.5-0.5,0.5c-0.2,0-0.5-0.1-0.7-0.1c-7-1.4-13.3-4.5-18.8-9.1c-5.1-4.3-8.9-9.6-11.6-15.7&#10;&#9;&#9;c-0.1-0.2-0.1-0.4-0.2-0.6c-0.3-0.5-0.1-0.8,0.3-1.1c0.9-0.6,1.7-1.2,2.5-1.8c3.7-3,6.5-6.7,8.5-11.1c2.2-4.8,3.1-9.8,2.7-15&#10;&#9;&#9;c-0.5-5.5-2.2-10.5-5.3-15.1c-3.3-4.7-7.5-8.2-12.7-10.6c-1.1-0.5-1.1-0.5-0.4-1.4c5-6.9,11.1-12.7,18-17.7&#10;&#9;&#9;c6.3-4.5,13.2-7.9,20.6-10.4c4.9-1.6,10-2.8,15.2-3.4C106.2,88.7,109.4,88.5,112.4,88.5z"/>
	<path class="st1" d="M178.4,48.6c0.9,0.5,1.7,1.1,2.5,1.7c5.5,4.3,10.4,9.3,14.6,14.9c3.2,4.2,5.9,8.7,8.1,13.4&#10;&#9;&#9;c3.3,7,5.6,14.3,6.8,22c0.6,3.7,0.9,7.4,0.9,11.1c0,3.4-0.1,6.8-0.5,10.2c-0.5,4.3-1.3,8.6-2.6,12.8c-1,3.2-4.1,5.4-7.5,5.3&#10;&#9;&#9;c-3.4-0.2-6.1-2.2-7.1-5.7c-0.1-0.5-0.1-0.9-0.1-1.4c0-4.1-0.2-8.2-0.8-12.3c-1-7.1-2.8-14.1-5.5-20.7c-0.2-0.5-0.6-0.8-1-1&#10;&#9;&#9;c-7.1-4-14.6-7.3-22.3-9.8c-6.7-2.2-13.5-3.8-20.4-4.9c-8-1.3-16.1-1.6-24.3-1.3c-6.6,0.3-13.2,1.1-19.6,2.4&#10;&#9;&#9;c-0.4,0.1-0.7,0.1-1.1,0.2c-0.8,0.1-0.8,0.1-0.7-0.7c0.2-1.2,0.5-2.4,0.9-3.6c1.6-5.5,4.2-10.6,7.8-15.1c3.8-4.7,8.4-8.4,13.8-11.1&#10;&#9;&#9;c0.9-0.5,1.9-0.9,2.8-1.3c0.8-0.3,0.8-0.3,1.3,0.4c1.2,1.8,2.6,3.5,4.2,5c5,4.8,10.9,7.6,17.7,8.4c7.4,0.8,14.2-0.8,20.4-4.8&#10;&#9;&#9;c4.8-3.2,8.5-7.4,10.9-12.6C177.9,49.5,178.1,49,178.4,48.6z"/>
	<path class="st1" d="M88.6,187.4c0-7.5,1-14.6,2.9-21.6c1.3-4.6,5.8-6.9,10.3-5.2c2.6,1,4.6,4.1,4.6,6.6&#10;&#9;&#9;c-0.1,8.5,1.1,16.8,3.5,24.9c0.8,2.7,1.8,5.3,2.8,8c0.2,0.5,0.6,0.9,1.1,1.1c8.6,4.9,17.7,8.6,27.2,11.3c6.5,1.8,13.1,3.2,19.8,3.9&#10;&#9;&#9;c4,0.5,8,0.7,12,0.8c5.6,0.2,11.3-0.2,16.9-0.8c3.7-0.4,7.4-1,11-1.8c0.4-0.1,0.7-0.1,1.1-0.2c0.3-0.1,0.5,0.1,0.4,0.4&#10;&#9;&#9;c0,0.4-0.1,0.8-0.2,1.2c-1.2,5.3-3.2,10.3-6.3,14.8c-3.5,5.3-8,9.4-13.4,12.7c-1.7,1.1-3.6,1.9-5.5,2.7c-0.8,0.4-0.9,0.4-1.4-0.4&#10;&#9;&#9;c-1.5-2.3-3.3-4.2-5.3-6c-3.1-2.7-6.5-4.7-10.4-6c-3.8-1.3-7.8-1.8-11.8-1.6c-5.7,0.4-11,2.2-15.7,5.6c-4.6,3.3-8,7.5-10.3,12.6&#10;&#9;&#9;c-0.1,0.1-0.1,0.2-0.2,0.4c-0.1,0.4-0.4,0.4-0.7,0.2c-0.6-0.5-1.3-0.9-1.9-1.4c-4.5-3.5-8.6-7.4-12.2-11.8&#10;&#9;&#9;c-4-4.8-7.3-9.9-10.1-15.5c-3.1-6.1-5.3-12.6-6.7-19.3C89.1,197.9,88.5,192.6,88.6,187.4z"/>
	<path class="st1" d="M186,211.5c-3.1,0-7.1-0.3-11-0.9c-3.1-0.5-6.2-1.2-9.2-2c-3.1-0.9-5.1-2.9-5.7-6.1c-0.7-3.7,1.7-7.6,5.2-8.6&#10;&#9;&#9;c0.5-0.1,0.9-0.2,1.4-0.2c5.5,0.1,11.1-0.4,16.5-1.4c3.8-0.7,7.5-1.7,11.2-2.9c1.9-0.6,3.7-1.3,5.5-2c0.5-0.2,0.9-0.5,1.2-1&#10;&#9;&#9;c6.2-11.1,10.7-22.8,13.3-35.2c1.2-5.4,2-10.9,2.4-16.5c0.2-2,0.3-4.1,0.3-6.1c0-1.2,0.1-2.3,0.1-3.5c0-8.6-0.9-17.2-2.6-25.7&#10;&#9;&#9;c-0.4-1.9-0.4-1.8,1.4-1.4c5.7,1.2,10.9,3.5,15.6,6.9c6.6,4.7,11.4,10.9,14.6,18.3c0.3,0.8,0.3,0.8-0.5,1.4&#10;&#9;&#9;c-3.1,2.1-5.8,4.7-7.9,7.8c-3,4.2-4.8,8.9-5.4,14c-0.9,7.5,0.8,14.4,5,20.7c3.2,4.8,7.4,8.4,12.7,10.8c1.3,0.6,1.3,0.6,0.5,1.7&#10;&#9;&#9;c-5.1,6.9-11.1,12.8-18.1,17.7c-7.7,5.4-16,9.2-25,11.6c-4.8,1.3-9.8,2.1-14.8,2.4C190.7,211.4,188.8,211.4,186,211.5z"/>
	<path class="st1" d="M37.1,175.1c-13.5,0.1-25.1-10.7-25.1-25c0-14.6,11.9-25.2,25.2-25.2c13.1,0.1,25,10.5,25,25.1&#10;&#9;&#9;C62.2,164.4,50.6,175.2,37.1,175.1z"/>
	<path class="st1" d="M262.8,175.1c-13.3,0.1-25-10.5-25-25.1c0-14.6,11.9-25.1,25.1-25.1c13.1,0,25,10.5,25,25.1&#10;&#9;&#9;C288,164.4,276.3,175.2,262.8,175.1z"/>
	<path class="st1" d="M124.9,36.9c0.2-14,11.2-25,25.2-25c14,0,25.2,11.4,25,25.4c-0.2,13.9-11.2,24.8-25.1,24.8&#10;&#9;&#9;C135.8,62.1,125,50.8,124.9,36.9z"/>
	<path class="st1" d="M150,288.1c-13.5,0-25.1-10.7-25.1-25.2c0-14,11.1-25.1,25.1-25.1c14.1,0,25.1,11.3,25.1,25.2&#10;&#9;&#9;C175,277.3,163.5,288.1,150,288.1z"/>
</g>
</svg>