<svg version="1.1" id="Layer_1" xmlns="http://www.w3.org/2000/svg" xmlns:xlink="http://www.w3.org/1999/xlink" x="0px" y="0px" viewBox="0 0 300 300" style="enable-background:new 0 0 300 300;" xml:space="preserve">
<style type="text/css">
	.st0{fill:#243C96;}
	.st1{fill:#FFFFFF;}
</style>
<circle class="st0" cx="150" cy="150" r="150"/>
<g>
	<path class="st1" d="M132.2,299.1c0.6,0.1,1.2,0.2,1.8,0.2c3.2,0.2,6.4,0.5,9.6,0.6c15,0.5,29.8-1.1,44.4-4.5&#10;&#9;&#9;c1.1-0.3,1.4-0.7,1.3-1.8c-0.1-1.9-0.2-3.7-0.3-5.6c-0.8-22.4-1.6-44.7-2.4-67.1c-0.6-15.9-1.1-31.7-1.6-47.6&#10;&#9;&#9;c0-0.6,0.3-1.4,0.7-1.8c4.1-3.2,7.2-7.3,9.8-11.9c4.2-7.5,6.8-15.5,7.8-23.9c0.9-7.7,1.1-15.5,1.5-23.3c0.1-2.5,0.7-4.8,2-7&#10;&#9;&#9;c5.8-10.2,11.7-20.4,17.4-30.7c1.4-2.5,2.7-5.2,3.7-8c0.7-2.1,1-4.3,1.2-6.5c0.1-1.6-0.6-3.1-2-4.1c-3.3-2.4-7.4-2.1-10.2,0.8&#10;&#9;&#9;c-1.2,1.2-2.2,2.6-3.1,4c-7.3,11.3-14.6,22.6-22,33.9c-0.4,0.6-1.1,0.9-1.7,1.4c-0.3-0.8-0.7-1.6-1-2.4c-0.1-0.3,0.1-0.8,0.2-1.2&#10;&#9;&#9;c2.2-9.3,4.4-18.7,6.6-28c1.8-7.6,3.7-15.1,5.2-22.8c0.7-3.6,0.7-7.4-0.4-11c-0.6-1.9-1.6-3.4-3.6-4c-3.6-1-7.2,0.3-9.1,3.6&#10;&#9;&#9;c-0.9,1.6-1.6,3.4-2.1,5.2c-4.7,16.4-9.3,32.8-14,49.2c-0.3,1-1,2-1.7,2.7c-1.1,1.1-2,0.8-2.3-0.8c-0.2-0.8-0.2-1.7-0.2-2.6&#10;&#9;&#9;c-0.4-18.4-0.7-36.8-1.1-55.2c-0.1-2.6-0.8-5.3-1.7-7.8c-1.2-3.1-3.8-4.5-7.1-4.3c-5.9,0.3-9.4,4-9.3,10.1&#10;&#9;&#9;c0.3,18.5,0.6,36.9,0.9,55.4c0,0.6,0.2,1.5-0.1,1.9c-1,1.1-2.1,2.6-3.5,2.9c-1.6,0.4-1.9-1.6-2.3-2.8c-5.7-16-11.4-32.1-17.1-48.2&#10;&#9;&#9;c-1.6-4.4-5.2-6.5-9.5-5.5c-4.5,1-6.9,4.4-6.5,9c0.1,1.1,0.4,2.2,0.7,3.3c4.6,15.9,9.2,31.7,13.8,47.6c2.7,9.1,1.3,17.8-1.8,26.5&#10;&#9;&#9;c-0.2,0.7-1,1.6-1.4,1.6c-0.7,0-1.5-0.7-1.9-1.4c-4.3-6.5-9.5-12.1-16.1-16.3C96.7,96.8,89.4,94,81.2,94c-3.1,0-5.6,1.7-7.1,4.5&#10;&#9;&#9;c-1.3,2.3-0.2,4.5,1.2,6.4c0.7,0.9,1.8,1.5,2.7,2.1c2.7,1.8,5.7,3.3,8.2,5.3c9.2,7.5,15.5,17,20.3,27.8&#10;&#9;&#9;c4.3,9.6,10.6,17.8,19.9,23.3c2.7,1.6,5.3,3.4,8,5c1.1,0.7,1.4,1.4,1.4,2.7c-1.3,41.9-2.5,83.7-3.7,125.6&#10;&#9;&#9;C132.1,297.5,132.2,298.2,132.2,299.1z M91.6,290.3c-1.2-7.5-2.2-14.4-3.3-21.3c-2.7-17.5-5.4-35-8.1-52.4c-0.1-0.6,0-1.5,0.4-1.9&#10;&#9;&#9;c3.7-4,5.6-8.9,6.8-14.1c1.5-6.2,1.4-12.5,0.6-18.7c-0.7-4.9,0.3-9.3,2.4-13.7c2.7-5.8,5.1-11.7,7.3-17.7c0.8-2.1,0.9-4.4,1-6.7&#10;&#9;&#9;c0.1-1.4-0.9-2.3-2.3-2.8c-2.5-0.8-4.5-0.1-6,2.6c-1.8,3.3-3.4,6.7-5.1,10c-2.3,4.6-4.5,9.2-6.7,13.7c-0.2,0.5-0.7,0.8-1.1,1.1&#10;&#9;&#9;c-0.2-0.5-0.6-1.1-0.7-1.6c-0.1-0.7,0.1-1.5,0.2-2.3c1.1-9.5,2.3-19,3.2-28.5c0.2-2.3-0.2-4.8-0.6-7.1c-0.3-1.7-1.2-3.1-3.2-3.3&#10;&#9;&#9;c-2.1-0.2-4,0.8-4.9,2.7c-0.5,1.2-0.8,2.4-1,3.7c-1.6,10.2-3.2,20.4-4.9,30.5c-0.2,0.9-0.9,1.8-1.3,2.7c-0.3-0.1-0.5-0.1-0.8-0.2&#10;&#9;&#9;c-0.2-0.9-0.5-1.8-0.7-2.8c-1.4-9.6-2.6-19.3-4-28.9c-0.4-2.7-0.8-5.5-1.7-8c-1.1-3-3.5-3.8-6.5-2.7c-2.9,1-4.1,3.4-3.6,7.1&#10;&#9;&#9;c1.3,9.2,2.5,18.5,3.8,27.7c0.3,1.9,0.7,3.8,0.7,5.7c0,1-1,1.9-1.6,2.8c-0.6-0.5-1.3-1-1.9-1.7c-0.4-0.4-0.5-1-0.8-1.6&#10;&#9;&#9;c-4.4-8.8-8.7-17.6-13.1-26.4c-1.3-2.6-3.7-3.6-6.3-2.6c-2.7,1.1-3.9,3.3-3.1,6.2c0.2,0.8,0.6,1.7,0.9,2.5&#10;&#9;&#9;c3.9,9.1,7.7,18.2,11.6,27.3c2.2,5.2,2,10.5,0.9,15.8c-0.1,0.5-0.6,1-1,1.5c-0.4-0.3-1-0.6-1.3-1c-3.7-4.2-8-7.6-13.2-9.6&#10;&#9;&#9;c-3.7-1.4-7.5-2.2-11.5-1.7C9,175.4,7,177.3,6.8,179c-0.2,1.8,1.2,3.4,3.4,4.4c2.2,1,4.5,2.1,6.5,3.4c5.3,3.6,9.4,8.4,12.7,13.9&#10;&#9;&#9;c3.6,6.1,8.4,11.1,15.1,13.9c1.3,0.6,2.6,1.3,4,1.8c1.1,0.4,1.4,1.1,1.5,2.2c1.5,16.9,3,33.7,4.5,50.6c0.1,1.3,0.5,2.2,1.6,2.8&#10;&#9;&#9;c7.1,4,14.1,8.2,21.3,11.9C81.8,286.4,86.5,288.1,91.6,290.3z M220,284.1c1.1-0.5,1.7-0.8,2.4-1.1c10.7-5.2,20.6-11.6,30-18.9&#10;&#9;&#9;c1.4-1.1,1.9-2.2,2-3.9c0.6-10.9,1.4-21.7,1.9-32.6c0.1-2.6,0.9-4.3,3-5.9c4.7-3.8,7.5-9.1,9-14.8c1.5-5.5,2.1-11.1,3.3-16.7&#10;&#9;&#9;c0.3-1.4,0.8-2.8,1.6-4c3.9-5.7,7.9-11.2,11.8-16.8c1.4-2,2.5-4.2,3.4-6.5c0.8-2.1,0.2-3.6-1.3-4.5c-1.8-1.2-3.7-1.1-5.4,0.3&#10;&#9;&#9;c-0.8,0.6-1.4,1.4-2,2.2c-4.6,5.8-9.2,11.7-13.9,17.5c-0.5,0.6-1.3,1.1-2,1.6c0-0.9-0.1-1.8,0.2-2.6c2.9-8.7,6-17.4,8.9-26.1&#10;&#9;&#9;c0.7-2.2,1-4.7,1.2-7.1c0.1-1.7-0.4-3.4-2.4-4.1c-2.1-0.6-4.1,0-5.3,2c-0.7,1-1.1,2.2-1.6,3.3c-3.5,8.8-6.9,17.6-10.3,26.3&#10;&#9;&#9;c-0.3,0.7-0.7,1.5-1.3,2c-0.7,0.7-1.4,0.5-1.5-0.6c0-0.5,0-0.9,0-1.4c0.6-8.4,1.3-16.8,1.9-25.2c0.2-3.1,0.6-6.3,0.4-9.5&#10;&#9;&#9;c-0.3-4.3-3.8-6.2-7.5-4.3c-2,1-2.6,2.9-2.8,5c-0.5,6.1-1,12.1-1.5,18.2c-0.4,4.6-0.8,9.1-1.1,13.7c-0.1,1.4-0.9,2.4-2.1,2.6&#10;&#9;&#9;c-1.4,0.2-1.2-1.3-1.6-2.1c-0.1-0.2-0.1-0.5-0.2-0.7c-2.3-9.3-4.6-18.5-6.9-27.8c-0.9-3.6-4.3-5-7.4-3.1c-1.7,1.1-2.4,3.1-1.9,5.8&#10;&#9;&#9;c1.8,9.9,3.7,19.8,5.5,29.7c0.9,5-0.6,9.6-2.6,14.1c-0.2,0.4-0.8,1.1-1,1c-0.5-0.1-0.9-0.6-1.2-1.1c-2-3.6-4.4-6.9-7.6-9.6&#10;&#9;&#9;c-3.8-3.2-8-5.3-12.9-5.9c-1.9-0.3-4.4,1.1-5,2.6c-0.6,1.6,0.4,3.5,2.2,4.9c1.9,1.4,3.8,2.9,5.4,4.7c4.1,4.3,6.8,9.5,8.7,15.1&#10;&#9;&#9;c0.5,1.7,1.2,3.3,2,4.9c2.6,5.9,7.2,10.1,12.4,13.6c1.1,0.7,1.4,1.5,1.2,2.8c-2.1,16-4.1,32.1-6.2,48.1&#10;&#9;&#9;C221.3,273.9,220.7,278.8,220,284.1z"/>
	<path class="st1" d="M132.2,299.1c0-0.9,0-1.7,0-2.4c1.2-41.9,2.5-83.7,3.7-125.6c0-1.3-0.3-2-1.4-2.7c-2.7-1.6-5.3-3.4-8-5&#10;&#9;&#9;c-9.3-5.5-15.6-13.6-19.9-23.3c-4.8-10.8-11.1-20.3-20.3-27.8c-2.5-2.1-5.5-3.6-8.2-5.3c-1-0.6-2.1-1.2-2.7-2.1&#10;&#9;&#9;c-1.4-1.9-2.5-4.1-1.2-6.4c1.5-2.7,4-4.5,7.1-4.5c8.1,0,15.5,2.8,22.3,7.1c6.6,4.2,11.7,9.8,16.1,16.3c0.4,0.6,1.2,1.3,1.9,1.4&#10;&#9;&#9;c0.5,0,1.2-0.9,1.4-1.6c3.1-8.6,4.5-17.4,1.8-26.5c-4.7-15.8-9.2-31.7-13.8-47.6c-0.3-1.1-0.6-2.2-0.7-3.3c-0.4-4.7,2-8,6.5-9&#10;&#9;&#9;c4.3-1,7.9,1.1,9.5,5.5c5.7,16.1,11.4,32.1,17.1,48.2c0.4,1.2,0.7,3.2,2.3,2.8c1.3-0.3,2.4-1.8,3.5-2.9c0.3-0.4,0.1-1.2,0.1-1.9&#10;&#9;&#9;c-0.3-18.5-0.6-36.9-0.9-55.4c-0.1-6.1,3.4-9.8,9.3-10.1c3.4-0.2,6,1.2,7.1,4.3c0.9,2.5,1.6,5.2,1.7,7.8&#10;&#9;&#9;c0.5,18.4,0.8,36.8,1.1,55.2c0,0.9,0,1.8,0.2,2.6c0.3,1.5,1.2,1.9,2.3,0.8c0.8-0.7,1.4-1.7,1.7-2.7c4.7-16.4,9.3-32.8,14-49.2&#10;&#9;&#9;c0.5-1.8,1.2-3.6,2.1-5.2c1.9-3.3,5.5-4.6,9.1-3.6c2,0.6,3,2.1,3.6,4c1.1,3.6,1.2,7.4,0.4,11c-1.6,7.6-3.5,15.2-5.2,22.8&#10;&#9;&#9;c-2.2,9.4-4.4,18.7-6.6,28c-0.1,0.4-0.3,0.8-0.2,1.2c0.2,0.8,0.6,1.6,1,2.4c0.6-0.5,1.3-0.8,1.7-1.4c7.3-11.3,14.6-22.6,22-33.9&#10;&#9;&#9;c0.9-1.4,1.9-2.8,3.1-4c2.9-3,6.9-3.2,10.2-0.8c1.4,1,2.1,2.5,2,4.1c-0.2,2.2-0.4,4.5-1.2,6.5c-1,2.7-2.2,5.4-3.7,8&#10;&#9;&#9;c-5.8,10.3-11.6,20.5-17.4,30.7c-1.3,2.2-1.9,4.5-2,7c-0.4,7.8-0.5,15.6-1.5,23.3c-1,8.4-3.7,16.5-7.8,23.9&#10;&#9;&#9;c-2.5,4.5-5.6,8.6-9.8,11.9c-0.4,0.3-0.7,1.2-0.7,1.8c0.5,15.9,1.1,31.7,1.6,47.6c0.8,22.4,1.6,44.7,2.4,67.1&#10;&#9;&#9;c0.1,1.9,0.1,3.8,0.3,5.6c0.1,1.1-0.2,1.5-1.3,1.8c-14.6,3.4-29.4,5-44.4,4.5c-3.2-0.1-6.4-0.4-9.6-0.6&#10;&#9;&#9;C133.4,299.3,132.8,299.2,132.2,299.1z M160.8,142.8c0.2-0.1,0.3-0.2,0.5-0.2c0-0.4,0-0.8,0-1.1c-0.8-7.8-4.1-14.3-10.4-19.2&#10;&#9;&#9;c-5.5-4.3-11.9-6.2-18.7-7.1c-0.9-0.1-1.7-0.2-2.6-0.3c-0.8-0.1-1.6,0-2.4,0c7.6,1.6,14.8,4.2,21,9&#10;&#9;&#9;C154.5,128.7,158.4,135.2,160.8,142.8z"/>
	<path class="st1" d="M91.6,290.3c-5.1-2.2-9.8-3.9-14.3-6.2c-7.2-3.8-14.2-8-21.3-11.9c-1.2-0.7-1.5-1.6-1.6-2.8&#10;&#9;&#9;c-1.5-16.9-3-33.7-4.5-50.6c-0.1-1.1-0.4-1.8-1.5-2.2c-1.4-0.5-2.6-1.3-4-1.8c-6.7-2.8-11.5-7.7-15.1-13.9&#10;&#9;&#9;c-3.3-5.5-7.3-10.3-12.7-13.9c-2-1.4-4.3-2.4-6.5-3.4c-2.1-1-3.6-2.7-3.4-4.4c0.2-1.7,2.2-3.6,4.3-3.9c4-0.5,7.8,0.3,11.5,1.7&#10;&#9;&#9;c5.3,2,9.6,5.4,13.2,9.6c0.4,0.4,0.9,0.7,1.3,1c0.3-0.5,0.9-1,1-1.5c1.1-5.4,1.4-10.7-0.9-15.8c-3.9-9.1-7.7-18.2-11.6-27.3&#10;&#9;&#9;c-0.3-0.8-0.7-1.6-0.9-2.5c-0.8-2.9,0.4-5.2,3.1-6.2c2.6-1,5,0,6.3,2.6c4.4,8.8,8.8,17.6,13.1,26.4c0.3,0.5,0.4,1.1,0.8,1.6&#10;&#9;&#9;c0.6,0.6,1.3,1.1,1.9,1.7c0.5-0.9,1.5-1.9,1.6-2.8c0.1-1.9-0.4-3.8-0.7-5.7c-1.2-9.2-2.5-18.5-3.8-27.7c-0.5-3.7,0.6-6.1,3.6-7.1&#10;&#9;&#9;c3-1.1,5.4-0.2,6.5,2.7c0.9,2.6,1.3,5.3,1.7,8c1.4,9.6,2.7,19.3,4,28.9c0.1,0.9,0.4,1.8,0.7,2.8c0.3,0.1,0.5,0.1,0.8,0.2&#10;&#9;&#9;c0.5-0.9,1.2-1.8,1.3-2.7c1.7-10.2,3.3-20.4,4.9-30.5c0.2-1.3,0.5-2.5,1-3.7c0.8-1.9,2.8-2.9,4.9-2.7c2,0.2,2.9,1.6,3.2,3.3&#10;&#9;&#9;c0.4,2.3,0.8,4.8,0.6,7.1c-0.9,9.5-2.1,19-3.2,28.5c-0.1,0.8-0.2,1.5-0.2,2.3c0.1,0.6,0.4,1.1,0.7,1.6c0.4-0.4,0.9-0.7,1.1-1.1&#10;&#9;&#9;c2.3-4.6,4.5-9.2,6.7-13.7c1.7-3.4,3.3-6.7,5.1-10c1.5-2.7,3.5-3.4,6-2.6c1.4,0.4,2.4,1.4,2.3,2.8c-0.1,2.2-0.2,4.6-1,6.7&#10;&#9;&#9;c-2.2,6-4.7,11.9-7.3,17.7c-2.1,4.4-3,8.8-2.4,13.7c0.8,6.2,0.9,12.5-0.6,18.7c-1.3,5.2-3.1,10.1-6.8,14.1&#10;&#9;&#9;c-0.4,0.4-0.5,1.3-0.4,1.9c2.7,17.5,5.4,35,8.1,52.4C89.4,275.9,90.5,282.8,91.6,290.3z M63.3,197.6c-0.6-9.2-10.3-15.4-22-14.3&#10;&#9;&#9;C51.1,184.3,59,188.1,63.3,197.6z"/>
	<path class="st1" d="M220,284.1c0.7-5.3,1.3-10.2,1.9-15.1c2-16,4.1-32.1,6.2-48.1c0.2-1.3-0.2-2.1-1.2-2.8&#10;&#9;&#9;c-5.2-3.5-9.7-7.7-12.4-13.6c-0.7-1.6-1.4-3.2-2-4.9c-1.8-5.7-4.6-10.8-8.7-15.1c-1.6-1.7-3.5-3.2-5.4-4.7&#10;&#9;&#9;c-1.8-1.4-2.8-3.3-2.2-4.9c0.6-1.5,3-2.9,5-2.6c4.9,0.7,9.2,2.8,12.9,5.9c3.2,2.7,5.6,6,7.6,9.6c0.3,0.5,0.7,0.9,1.2,1.1&#10;&#9;&#9;c0.2,0.1,0.8-0.6,1-1c2-4.5,3.5-9.1,2.6-14.1c-1.8-9.9-3.7-19.8-5.5-29.7c-0.5-2.7,0.2-4.7,1.9-5.8c3.1-1.9,6.5-0.5,7.4,3.1&#10;&#9;&#9;c2.3,9.3,4.6,18.5,6.9,27.8c0.1,0.2,0.1,0.5,0.2,0.7c0.4,0.8,0.1,2.3,1.6,2.1c1.3-0.2,2-1.2,2.1-2.6c0.3-4.6,0.7-9.1,1.1-13.7&#10;&#9;&#9;c0.5-6.1,1-12.1,1.5-18.2c0.2-2.1,0.8-3.9,2.8-5c3.7-1.9,7.3,0,7.5,4.3c0.2,3.1-0.2,6.3-0.4,9.5c-0.6,8.4-1.3,16.8-1.9,25.2&#10;&#9;&#9;c0,0.5-0.1,0.9,0,1.4c0.1,1.2,0.8,1.3,1.5,0.6c0.6-0.5,1-1.3,1.3-2c3.5-8.8,6.9-17.6,10.3-26.3c0.4-1.1,0.9-2.3,1.6-3.3&#10;&#9;&#9;c1.2-1.9,3.2-2.6,5.3-2c2,0.6,2.5,2.3,2.4,4.1c-0.2,2.4-0.4,4.8-1.2,7.1c-2.9,8.7-5.9,17.4-8.9,26.1c-0.3,0.8-0.1,1.8-0.2,2.6&#10;&#9;&#9;c0.7-0.5,1.5-0.9,2-1.6c4.7-5.8,9.3-11.6,13.9-17.5c0.6-0.8,1.3-1.5,2-2.2c1.7-1.4,3.5-1.5,5.4-0.3c1.5,0.9,2.1,2.4,1.3,4.5&#10;&#9;&#9;c-0.9,2.3-2,4.5-3.4,6.5c-3.8,5.7-7.9,11.2-11.8,16.8c-0.8,1.2-1.3,2.6-1.6,4c-1.1,5.6-1.8,11.2-3.3,16.7c-1.5,5.7-4.4,11-9,14.8&#10;&#9;&#9;c-2.1,1.7-2.9,3.3-3,5.9c-0.5,10.9-1.3,21.8-1.9,32.6c-0.1,1.7-0.7,2.9-2,3.9c-9.3,7.3-19.3,13.7-30,18.9&#10;&#9;&#9;C221.8,283.3,221.1,283.6,220,284.1z M244.1,203.2c1.4-7.9-7.5-17-17-17.2C235.8,189,242,194.1,244.1,203.2z"/>
	<path class="st0" d="M160.8,142.8c-2.4-7.6-6.3-14.1-12.6-18.9c-6.2-4.8-13.4-7.4-21-9c0.8,0,1.6,0,2.4,0c0.9,0.1,1.7,0.2,2.6,0.3&#10;&#9;&#9;c6.8,0.9,13.2,2.8,18.7,7.1c6.3,4.9,9.6,11.4,10.4,19.2c0,0.4,0,0.8,0,1.1C161.1,142.6,160.9,142.7,160.8,142.8z"/>
	<path class="st0" d="M63.3,197.6c-4.3-9.4-12.2-13.3-22-14.3C53,182.1,62.7,188.4,63.3,197.6z"/>
	<path class="st0" d="M244.1,203.2c-2.1-9.1-8.3-14.2-17-17.2C236.6,186.2,245.5,195.2,244.1,203.2z"/>
</g>
</svg>