<svg version="1.1" id="Layer_1" xmlns="http://www.w3.org/2000/svg" xmlns:xlink="http://www.w3.org/1999/xlink" x="0px" y="0px" viewBox="0 0 300 300" style="enable-background:new 0 0 300 300;" xml:space="preserve"><style type="text/css">
	.st0{fill:#609841;}
	.st1{fill-rule:evenodd;clip-rule:evenodd;fill:#FFFFFF;}
	.st2{fill-rule:evenodd;clip-rule:evenodd;fill:#D9C6B8;}</style> <g id="XMLID_1_"> <g> <circle class="st0" cx="150" cy="150" r="150"/> </g> <g> </g> </g> <g> <path class="st1" d="M221,99.3c0.8,0.7,0.8,4.6,0,5.3C221,102.8,221,101,221,99.3z"/> <path class="st2" d="M70.8,163.1c0.5-0.8,4.3-0.8,4.8,0C74,163.1,72.4,163.1,70.8,163.1z"/> <path class="st1" d="M233,103.1c-1.3,12-5.5,19.7-13,28.3c-3.2,3.7-14.2,15.8-19.2,16.3c-2.3,0.2-7.3-1.8-11-2.9&#10;&#9;&#9;c-3.8-1.1-7.7-2.5-10.6-3.4c-7.1-2-15.1-5.5-21.6-6.2c-16.6-1.9-27.5,20.8-11.5,30.7c4.1,3.1,9.2,5.2,13.9,7.7&#10;&#9;&#9;c-4.1,3.6-9.3,6.6-13.9,10.6c-1.6,1.4-6,7.9-8.6,8.2c-3.2,0.3-9-7.6-11.5-9.6c-4.6-3.7-8-6.3-12.5-8.6&#10;&#9;&#9;c-17.9-11.9-37.6-21.9-53.3-36c-1.6-2-3.3-3.7-5.3-5.3c-4.3-5-8.2-10.4-11-16.8c-1.2-4.4-3-8.2-2.9-13.9c0-1.9,0-3.8,0-5.8&#10;&#9;&#9;c0.4-8.2,3.3-14,6.2-19.7c1.9-2,3.4-4.3,5.3-6.2c8.2-8.3,18.7-14.3,34.6-14.9c1.9,0,3.8,0,5.8,0c16.7,0.6,27,7.5,36.5,15.4&#10;&#9;&#9;c2.8,2.6,4.3,8,8.2,7.7c2.8-0.2,7.8-7.7,11-10.6c4.9-4.2,9.2-6.5,13.4-8.2c5.2-2.3,10.9-4.2,18.2-4.3c2.7,0,5.4,0,8.2,0&#10;&#9;&#9;c7.4,0.2,13,2.1,18.2,4.3C221.8,67.9,233.6,79.4,233,103.1z M109.2,70.9c-5.6-3-12.9-5.4-19.7-5.8c0,0.3-0.1,0.6-0.5,0.5&#10;&#9;&#9;c-2,0.3-1.6,3.7-1,5.3c6.3,1.3,10.7,1.9,16.8,4.8c4.6,2.2,11.1,9.1,14.9,7.7C122,76.8,113.9,73.5,109.2,70.9z M212.9,78.6&#10;&#9;&#9;c-5.9-6-12.4-11.3-23-12.5c-0.7,0.9-1.3,1.9-1.4,3.4c5.9,4.3,14.6,5.9,19.2,11.5c0,0.3,0.1,0.6,0.5,0.5c3.3,5,7,9.6,7.2,17.8&#10;&#9;&#9;c0,1.6,0,3.2,0,4.8c0.4,3.3-1.2,4.6-1,7.7c1,1.1,2.3,1.8,4.8,1.4c1.2-2.3,2-5,1.9-8.6c0.8-0.7,0.8-4.6,0-5.3c0-0.5,0-1,0-1.4&#10;&#9;&#9;c-0.7-7.2-2.9-12.8-6.7-16.8C214.5,79.5,213,79.8,212.9,78.6z"/> <path class="st1" d="M100.1,188.1c0,0.3,0,0.6,0,1c5.3,3.7,12.2,7,19.2,9.6c5.4,2,16.9,6.4,22.6,6.2c7.6-0.3,17.4-6.5,23.5-10.1&#10;&#9;&#9;c7.5-4.3,14.3-8.8,18.7-14.9c-2.6-1.4-4.9-3.1-7.7-4.3c-2-1.4-4.2-2.5-6.7-3.4c-4.2-2.2-8.4-4.4-13-6.2c-4.3-3.5-12.3-5.2-13-12&#10;&#9;&#9;c-0.7-8.2,6-13.9,13.9-13c3.6,0.4,8.2,2.6,12.5,3.8c28.4,8.1,62.3,18.1,89.3,25.4c8.2,10.7-1.6,47.5-9.6,49.4&#10;&#9;&#9;c-4.4,1.1-19-5.3-24.5-5.3c-0.2,0-0.3,0-0.5,0c-1.7-1-4.4-1.1-6.7-1.4c-3.6,0.3-4.6,3-7.2,4.3c-1.1,0.5-2.1,1.1-2.9,1.9&#10;&#9;&#9;c-12.6,8.1-27.5,14.6-43.2,20.2c-4.9,1.7-12,5.5-16.3,5.3c-4.6-0.2-13-5.3-18.2-8.2c-6.4-3.5-11.4-7-16.3-10.6&#10;&#9;&#9;c-11.9-8.6-27-17.8-33.6-30.2c0.1-0.4-0.2-0.5-0.5-0.5c0-0.2,0-0.3,0-0.5c-1.5-3.5-4.8-7.9-7.7-13c-3.7-6.5-10.9-16.7-1.4-18.7&#10;&#9;&#9;c1.6,0,3.2,0,4.8,0C89.9,165.3,92.6,179,100.1,188.1z"/> </g> </svg>