<svg version="1.1" id="Layer_1" xmlns="http://www.w3.org/2000/svg" xmlns:xlink="http://www.w3.org/1999/xlink" x="0px" y="0px" viewBox="0 0 300 300" style="enable-background:new 0 0 300 300;" xml:space="preserve"> 
	<style type="text/css"> 
	.st0{fill:#669B41;} 
	.st1{fill-rule:evenodd;clip-rule:evenodd;fill:#FFFFFF;} 
	.st2{fill-rule:evenodd;clip-rule:evenodd;fill:none;} 
	.st3{fill:#FFFFFF;} 
	.st4{font-family:'MyriadPro-Bold';} 
	.st5{font-size:90px;} 
	</style> 
	<circle class="st0" cx="150" cy="150" r="150"/> 
	<g> 
	<g> 
	<path class="st1" d="M153.7,89.9c-24.8,0-55.8-0.3-78.8,0.4c-0.9,1.9-0.1,5.5-0.4,8h-8c0,0,0,0,0,0.1c1.4,0.9,2.4,2.5,2.4,4.2v8.6 &#10;&#9;c0,1.6-0.8,3.1-2,4c2,2.1,5.9,4.7,7.3,6.3c5.3,6.3,7.9,13.5,8.8,24h17.2v21.2c-6.9-0.3-14.9,0.5-21.2-0.4 &#10;&#9;c-3.2,6-8.1,10.3-13.2,14.4v32.4c0,11.5-1,23.7,0,32c0.7,5.8,4.6,9.8,9.6,11.2h105.2c4.5-1.6,7.8-4.5,9.2-9.2v-148 &#10;&#9;C187.1,86.7,170.2,89.9,153.7,89.9z M100.1,243.5H78.9v-21.2h21.2V243.5z M100.1,217.9H78.9v-21.2h21.2V217.9z M100.1,192.3H78.9 &#10;&#9;v-21.2h21.2V192.3z M125.7,243.5h-21.2v-21.2h21.2V243.5z M125.7,217.9h-21.2v-21.2h21.2V217.9z M125.7,192.3h-21.2v-21.2h21.2 &#10;&#9;V192.3z M125.7,166.7h-21.2v-21.2h21.2V166.7z M151.3,243.5h-21.2v-21.2h21.2V243.5z M151.3,217.9h-21.2v-21.2h21.2V217.9z &#10;&#9;M151.3,192.3h-21.2v-21.2h21.2V192.3z M151.3,166.7h-21.2v-21.2h21.2V166.7z M176.9,243.5h-21.2v-21.2h21.2V243.5z M176.9,217.9 &#10;&#9;h-21.2v-21.2h21.2V217.9z M176.9,192.3h-21.2v-21.2h21.2V192.3z M176.9,166.7h-21.2v-21.2h21.2V166.7z M176.9,128.3h-98v-24.4 &#10;&#9;c0-0.6-0.1-1.1,0.4-1.2h97.6V128.3z"/> 
	</g> 
	<g> 
	<path class="st1" d="M78.8,102.7h26.3c-0.6-0.9-1-2-1-3c0.1-2.6,0.5-5.1,1.1-7.5c0.2-1,0.7-1.7,1.3-2.3c-1.5,0-3,0-4.5,0 &#10;&#9;c-16.5,0-33.4-3.2-36,9.2v89.4c4.3,0,8.5-0.1,12.8-0.1v-17.3h18.8c1.1-1.5,2.9-2.5,5.2-2c0.3,0.1,0.6,0.1,0.9,0.2 &#10;&#9;c0-0.2-0.1-0.5-0.1-0.7c0-1,0.3-1.9,0.7-2.6v-20.6h1.2c0-0.1,0-0.2,0-0.3c-0.1-5.5-0.9-11.7,2.6-16.4c0.1-0.2,0.3-0.3,0.4-0.5 &#10;&#9;H78.8V102.7z M100,145.5v21.2H78.8v-21.2H100z"/> 
	</g> 
	</g> 
	<rect x="152.9" y="-7.7" class="st2" width="178" height="188.4"/> 
	<text transform="matrix(1 0 0 1 178.8503 103)" class="st3 st4 st5">+</text> 
	</svg>