<svg version="1.1" id="Layer_1" xmlns="http://www.w3.org/2000/svg" xmlns:xlink="http://www.w3.org/1999/xlink" x="0px" y="0px" viewBox="0 0 300 300" style="enable-background:new 0 0 300 300;" xml:space="preserve">
<style type="text/css">
	.st0{fill:#609841;}
	.st1{fill-rule:evenodd;clip-rule:evenodd;fill:#FFFFFF;}
	.st2{fill-rule:evenodd;clip-rule:evenodd;fill:none;}
	.st3{fill:#FFFFFF;}
	.st4{font-family:'MyriadPro-Bold';}
	.st5{font-size:90px;}
</style>
<circle class="st0" cx="150" cy="150" r="150"/>
<g>
	<path class="st1" d="M123,25.5c20-2,36.2,5.5,46,14.5c10.9,9.9,21.5,26.8,20,49.5c-1.6,23.9-17.1,42.4-35,50.5&#10;&#9;&#9;c-41.1,18.5-82.3-12.4-85-50c-2.1-28.5,14.5-50.2,34-59.5C108.3,28,114.4,26.3,123,25.5z M99.5,52c-8,7.1-14.1,17.6-14.5,31.5&#10;&#9;&#9;c-0.8,26.7,20.8,47.1,47,45.5c22.1-1.3,40.3-19.4,41-42.5c0.4-13.6-6.8-27.3-14-34c-7.4-6.7-21.2-12.5-34.5-11&#10;&#9;&#9;C114.4,42.7,105.4,46.7,99.5,52z"/>
	<path class="st1" d="M87,156c-1.5,2-4.8,2.2-6,4.5c-8.9-7.1-15.7-16.5-25-23.5c-3.1-2.3-6.6-3.8-9.5-6.5c9.4-4.4,18.5,4.3,25,10.5&#10;&#9;&#9;C77.1,146.4,81.8,152.6,87,156z"/>
	<path class="st1" d="M75,166c-1.7,2.3-2.9,5.1-4,8c-13.8-10.5-23.3-25.4-39-34c1.5-3.2,6-3.8,10-2.5C53.8,141.4,65.7,159,75,166z"/>
	<path class="st1" d="M269,142c0,28.7,0,57.3,0,86c-2.3,7.2-13.1,5-22.5,5c-5.6,0-13.3,0.4-15.5-1.5c-2.9-2.6-2-13.9-2-22&#10;&#9;&#9;c0-18.1,0-31.3,0-48.5c0-7.3-0.9-19.9,2-22.5c2.7-2.4,13-1.5,20-1.5C260.5,137,267.6,136,269,142z"/>
	<path class="st1" d="M13,160.5c0-2.2,0-4.3,0-6.5c2.7-13.9,15.4-8.1,23-2c12.5,10.1,24.1,24.5,34.5,33c2.5,13.7,13.3,22.7,28.5,24&#10;&#9;&#9;c10.3,0.9,23,0,35,0c11.9,0,23.5-0.4,32-3c-8.1-4.6-20.1-5-33.5-5c-12.7,0-28,1.9-38-0.5c-8.7-2.1-16.9-9-17.5-18&#10;&#9;&#9;c-0.7-10.5,7-16.8,13.5-19.5c8-3.3,19.8-2,32-2c8.3,0,18.5,1.6,25,0c2.1-0.5,5-3.5,8-5.5c16.9-11.5,49.1-14,65.5-0.5&#10;&#9;&#9;c0,20.5,0,41,0,61.5c-22.1-1-34.9,6-50,12.5c-10.2,4.4-20.4,9.8-31.5,11.5c-14.2,2.2-31-0.3-45.5-3c-13.4-2.5-26.3-6.3-34.5-12.5&#10;&#9;&#9;c-3.8-2.9-8-7.9-11.5-12c-3.6-4.2-7-8.7-10.5-13C27.4,187.6,17,176.9,13,160.5z"/>
</g>
<rect x="103.4" y="49.2" class="st2" width="72.2" height="64.6"/>
<text transform="matrix(1 0 0 1 103.4019 113.1006)" class="st3 st4 st5">£</text>
</svg>