<svg version="1.1" id="Layer_1" xmlns="http://www.w3.org/2000/svg" xmlns:xlink="http://www.w3.org/1999/xlink" x="0px" y="0px" viewBox="0 0 300 300" style="enable-background:new 0 0 300 300;" xml:space="preserve">
<style type="text/css">
	.st0{fill:#609841;}
	.st1{fill-rule:evenodd;clip-rule:evenodd;fill:#FFFFFF;}
	.st2{fill-rule:evenodd;clip-rule:evenodd;fill:#609841;}
</style>
<circle class="st0" cx="150" cy="150" r="150"/>
<g>
	<path class="st1" d="M227.2,269c-39.9,0-79.7,0-119.6,0c0.2-4.1-1.5-6.9-2-11c-0.4-3.9,1-8.3-0.7-12.4c-5.3-13.1-31.6-5.1-44.2-11&#10;&#9;&#9;c-4.1-2-9-8.1-9.8-13.7c-0.7-5.6,2.3-9.8,1.9-14.3c-0.5-5.9-9.6-10.2-2.6-16.3c-7.5-2.3-5.7-11-3.9-18.2&#10;&#9;&#9;c-6.3-3.6-15.8-4.3-16.3-12.3c-0.2-3.6,3-7.3,5.2-10.4c5.1-7.2,8.4-11.9,13-18.2c2.5-3.4,5-6.9,5.2-10.4c0.4-7-3.7-9-3.9-15.6&#10;&#9;&#9;c-0.3-9.6,4-16.4,6.5-24.7c2.6-8.7,5-17.1,8.5-23.4c9.1-16.7,28.9-28.9,46.8-34.5c19.6-6.1,49.1-6.5,73.4-0.6&#10;&#9;&#9;c38.8,9.4,69,45.9,68.2,95.5c-0.3,19.9-9.5,35-18.2,49.4c-8.4,14-16.3,32.6-17.6,50.7c-1,15.3,0.6,29.2,4.6,41&#10;&#9;&#9;c1.3,4,1.4,2.4,5.2,9.8C227.2,268.6,227.2,268.8,227.2,269z"/>
</g>
<g>
	<path class="st2" d="M105.2,54.9c12.4,0,24.8,0,37.3,0c3.4,1.2,5.8,1.9,7,4.8c2.1,4.9-0.9,9.4-4.5,11c-2.3,1-3.9,0.8-4.3,2.3&#10;&#9;&#9;c-0.8,3,3.4,5.1,5.8,6c6.2,2.5,13,2.7,19.3,0c1.1-0.5,2.7-0.9,3.8-2c1-0.9,2-2.7,1.8-3.8c-0.5-1.9-5.7-2.1-7.8-4.5&#10;&#9;&#9;c-3.1-3.7-1.5-10.1,2.3-12.3c3.6-2.1,10.4-0.8,15.3-1.5c8.7,0,17.3,0,26,0c2.2,0.8,1.5,6.8,1.5,11.3c0,3.7,0,7.4,0,11.3&#10;&#9;&#9;c0,6.2-1.6,18.9,3.5,19.3c4.9,0.3,4-7.9,8-9.3c5-1.7,9.4,2.5,11.3,5.8c5.3,9.5,3.1,27.8-4.5,32.3c-4.6,2.7-8.8,0.7-10.5-3&#10;&#9;&#9;c-0.7-1.6-0.8-4.5-3.3-5c-4.4-0.9-4.5,2.7-4.5,7.3c0,9.1,0,14.4,0,23.3c0,3.3,0.6,9.4-0.8,10.8c-1.8,1.7-15,0.8-19,0.8&#10;&#9;&#9;c-8,0-14,0.8-19.5,0c-5.5-0.7-9.7-6.7-6.8-12.3c1.7-3.2,5-2.9,8.5-5.5c0-3.3-2.9-5.1-5.8-6.3c-5.2-2.1-12.3-2.8-18.5-0.5&#10;&#9;&#9;c-2.6,1-6.9,3.4-6.3,6.3c0.4,1.7,3.3,1.8,4.8,2.5c7.1,3.5,5.6,14.2-2.8,15.5c-5.7,0.9-12.2-0.3-19.8,0c-3.3,0.1-6.5,0.3-9.5,0.3&#10;&#9;&#9;c-3.3,0-6.6,0.5-9-0.8c-0.9-3.2-0.5-7.1-0.5-11c0-3.7,0-7.6,0-11.5c0-5.8,2-18.9-4-18.8c-4.2,0.1-3.7,7.7-7.3,9&#10;&#9;&#9;c-2.4,0.9-5.8,0-7.3-0.8c-4-2.3-6.3-9.4-7.3-15c0-1.9,0-3.8,0-5.8c1.1-6.3,3-14,8-16.5c1.7-0.8,4.3-1.6,6.8-0.8&#10;&#9;&#9;c3.5,1.3,3.3,9.9,8.3,9c2.8-0.5,2.8-4.4,2.8-8.5c0-7.9,0-14.7,0-22.8C103.7,61.8,103,55.4,105.2,54.9z"/>
</g>
</svg>